<mxfile host="app.diagrams.net">
  <diagram name="Decorator Pattern">
    <mxGraphModel dx="1024" dy="768" grid="1" gridSize="10" guides="1">
      <root>
        <mxCell id="0" />
        <mxCell id="1" parent="0" />

        <!-- Course -->
        <mxCell id="Course" value="&lt;&lt;abstract&gt;&gt;&#xa;Course&#xa;+ play(): void" style="shape=umlClass;" vertex="1" parent="1">
          <mxGeometry x="260" y="20" width="160" height="80" as="geometry" />
        </mxCell>

        <!-- CourseEnhancement -->
        <mxCell id="Enhancement" value="&lt;&lt;abstract&gt;&gt;&#xa;CourseEnhancement&#xa;- baseCourse: Course&#xa;+ play(): void" style="shape=umlClass;" vertex="1" parent="1">
          <mxGeometry x="260" y="120" width="180" height="80" as="geometry" />
        </mxCell>

        <!-- Certificate -->
        <mxCell id="Cert" value="CertificateDecorator" style="shape=umlClass;" vertex="1" parent="1">
          <mxGeometry x="100" y="240" width="160" height="60" as="geometry" />
        </mxCell>

        <!-- Badge -->
        <mxCell id="Badge" value="BadgeDecorator" style="shape=umlClass;" vertex="1" parent="1">
          <mxGeometry x="360" y="240" width="160" height="60" as="geometry" />
        </mxCell>

        <!-- Inheritance and association -->
        <mxCell style="endArrow=block;endFill=1;" edge="1" source="Enhancement" target="Course" parent="1" />
        <mxCell style="endArrow=block;endFill=1;" edge="1" source="Cert" target="Enhancement" parent="1" />
        <mxCell style="endArrow=block;endFill=1;" edge="1" source="Badge" target="Enhancement" parent="1" />
      </root>
    </mxGraphModel>
  </diagram>
</mxfile>
